<?xml version="1.0" encoding="UTF-8" standalone="no"?>
<!-- Created with Inkscape (http://www.inkscape.org/) -->

<svg
   width="199.4873mm"
   height="198.36475mm"
   viewBox="0 0 199.4873 198.36474"
   version="1.1"
   id="svg5"
   inkscape:version="1.1.2 (b8e25be8, 2022-02-05)"
   sodipodi:docname="face.svg"
   xmlns:inkscape="http://www.inkscape.org/namespaces/inkscape"
   xmlns:sodipodi="http://sodipodi.sourceforge.net/DTD/sodipodi-0.dtd"
   xmlns="http://www.w3.org/2000/svg"
   xmlns:svg="http://www.w3.org/2000/svg">
  <sodipodi:namedview
     id="namedview7"
     pagecolor="#ffffff"
     bordercolor="#666666"
     borderopacity="1.0"
     inkscape:pageshadow="2"
     inkscape:pageopacity="0.0"
     inkscape:pagecheckerboard="0"
     inkscape:document-units="mm"
     showgrid="false"
     inkscape:zoom="0.56530521"
     inkscape:cx="328.14132"
     inkscape:cy="373.2497"
     inkscape:window-width="1312"
     inkscape:window-height="794"
     inkscape:window-x="0"
     inkscape:window-y="25"
     inkscape:window-maximized="0"
     inkscape:current-layer="layer2" />
  <defs
     id="defs2">
    <inkscape:path-effect
       effect="powerclip"
       id="path-effect5777"
       is_visible="true"
       lpeversion="1"
       inverse="true"
       flatten="false"
       hide_clip="false"
       message="Use fill-rule evenodd on &lt;b&gt;fill and stroke&lt;/b&gt; dialog if no flatten result after convert clip to paths." />
    <inkscape:path-effect
       effect="powerclip"
       id="path-effect5761"
       is_visible="true"
       lpeversion="1"
       inverse="true"
       flatten="false"
       hide_clip="false"
       message="Use fill-rule evenodd on &lt;b&gt;fill and stroke&lt;/b&gt; dialog if no flatten result after convert clip to paths." />
    <clipPath
       clipPathUnits="userSpaceOnUse"
       id="clipPath1561">
      <rect
         style="opacity:0.5;fill:#ffaaaa;stroke-width:0.261822"
         id="rect1563"
         width="199.4873"
         height="198.36475"
         x="5.6866789"
         y="4.6831474" />
    </clipPath>
    <clipPath
       clipPathUnits="userSpaceOnUse"
       id="clipPath5717">
      <rect
         style="opacity:0.5;fill:#410806;fill-opacity:1;stroke:#886e83;stroke-width:0.264583;stroke-opacity:1"
         id="rect5719"
         width="199.4873"
         height="198.36475"
         x="5.6866789"
         y="4.6831465" />
    </clipPath>
    <clipPath
       clipPathUnits="userSpaceOnUse"
       id="clipPath5721">
      <rect
         style="opacity:0.5;fill:#410806;fill-opacity:1;stroke:#886e83;stroke-width:0.264583;stroke-opacity:1"
         id="rect5723"
         width="199.4873"
         height="198.36475"
         x="5.6866789"
         y="4.6831465" />
    </clipPath>
    <clipPath
       clipPathUnits="userSpaceOnUse"
       id="clipPath5725">
      <rect
         style="opacity:0.5;fill:#410806;fill-opacity:1;stroke:#886e83;stroke-width:0.264583;stroke-opacity:1"
         id="rect5727"
         width="199.4873"
         height="198.36475"
         x="5.6866789"
         y="4.6831465" />
    </clipPath>
    <clipPath
       clipPathUnits="userSpaceOnUse"
       id="clipPath5729">
      <rect
         style="opacity:0.5;fill:#410806;fill-opacity:1;stroke:#886e83;stroke-width:0.264583;stroke-opacity:1"
         id="rect5731"
         width="199.4873"
         height="198.36475"
         x="5.6866789"
         y="4.6831465" />
    </clipPath>
    <clipPath
       clipPathUnits="userSpaceOnUse"
       id="clipPath5733">
      <rect
         style="opacity:0.5;fill:#410806;fill-opacity:1;stroke:#886e83;stroke-width:0.264583;stroke-opacity:1"
         id="rect5735"
         width="199.4873"
         height="198.36475"
         x="5.6866789"
         y="4.6831465" />
    </clipPath>
    <clipPath
       clipPathUnits="userSpaceOnUse"
       id="clipPath5757">
      <path
         style="display:none;fill:#410806;fill-opacity:1;stroke:#000000;stroke-width:0.264583px;stroke-linecap:butt;stroke-linejoin:miter;stroke-opacity:1"
         d="m 133.53442,207.85447 c 2.70339,-10.73633 6.91753,-46.27677 20.84587,-58.0059 1.64671,-1.3867 0.87269,4.21792 1.20845,6.3444 2.27271,14.39381 3.95757,19.69341 0.90634,34.441 -1.43925,6.95639 -8.19022,14.52357 -13.59513,18.12684 -0.66636,0.44424 -15.58137,7.38145 -9.36553,-0.90634 z"
         id="path5759" />
      <path
         id="lpe_path-effect5761"
         style="fill:#410806;fill-opacity:1;stroke:#000000;stroke-width:0.264583px;stroke-linecap:butt;stroke-linejoin:miter;stroke-opacity:1"
         class="powerclip"
         d="M 0.68667889,-0.31685257 H 214.40358 V 208.04789 H 0.68667889 Z M 149.54646,16.616273 c 0.75195,3.284865 0.60924,6.914452 2.25586,9.854593 0.79678,1.422715 0.56882,-3.231607 0.54022,-4.861995 -0.15175,-8.649717 -0.23361,-17.3211444 -1.08044,-25.9306453 -0.23976,-2.4375073 -0.42899,-5.2909872 -2.16089,-7.0228827 -1.02658,-1.02658 -0.56332,2.8701557 -0.54022,4.3217739 0.12557,7.88556311 0.65698,15.7594374 0.98547,23.6391561" />
    </clipPath>
    <clipPath
       clipPathUnits="userSpaceOnUse"
       id="clipPath5773">
      <path
         style="display:none;fill:#410806;fill-opacity:1;stroke:#000000;stroke-width:0.264583px;stroke-linecap:butt;stroke-linejoin:miter;stroke-opacity:1"
         d="m 149.54646,16.616273 c -0.32849,-7.8797187 -0.8599,-15.75359299 -0.98547,-23.6391561 -0.0231,-1.4516182 -0.48636,-5.3483539 0.54022,-4.3217739 1.7319,1.7318955 1.92113,4.5853754 2.16089,7.0228827 0.84683,8.6095009 0.92869,17.2809283 1.08044,25.9306453 0.0286,1.630388 0.25656,6.28471 -0.54022,4.861995 -1.64662,-2.940141 -1.50391,-6.569728 -2.25586,-9.854593"
         id="path5775" />
      <path
         id="lpe_path-effect5777"
         style="fill:#410806;fill-opacity:1;stroke:#000000;stroke-width:0.264583px;stroke-linecap:butt;stroke-linejoin:miter;stroke-opacity:1"
         class="powerclip"
         d="M 0.68667889,-0.31685257 H 214.40358 V 208.04789 H 0.68667889 Z M 149.54646,16.616273 c 0.75195,3.284865 0.60924,6.914452 2.25586,9.854593 0.79678,1.422715 0.56882,-3.231607 0.54022,-4.861995 -0.15175,-8.649717 -0.23361,-17.3211444 -1.08044,-25.9306453 -0.23976,-2.4375073 -0.42899,-5.2909872 -2.16089,-7.0228827 -1.02658,-1.02658 -0.56332,2.8701557 -0.54022,4.3217739 0.12557,7.88556311 0.65698,15.7594374 0.98547,23.6391561" />
    </clipPath>
  </defs>
  <g
     inkscape:groupmode="layer"
     id="layer2"
     inkscape:label="Layer 2"
     transform="translate(-5.6866789,-4.6831474)">
    <path
       style="fill:#800000;stroke-width:0.264583"
       id="rect805"
       width="203.7169"
       height="198.36475"
       x="5.6866789"
       y="4.6831474"
       clip-path="url(#clipPath5773)"
       inkscape:path-effect="#path-effect5761;#path-effect5777"
       d="M 5.6866789,4.6831474 H 209.40358 V 203.04789 H 5.6866789 Z"
       sodipodi:type="rect"
       transform="matrix(0.97923786,0,0,1,0.11806764,0)" />
    <rect
       style="fill:#ffaaaa;stroke-width:0.264583"
       id="rect1238"
       width="108.14397"
       height="199.29803"
       x="5.6866789"
       y="4.6831474" />
    <path
       style="fill:#410806;fill-opacity:1;stroke:#000000;stroke-width:0.264583px;stroke-linecap:butt;stroke-linejoin:miter;stroke-opacity:1"
       d="m 149.54646,16.616273 c -0.22695,9.158409 0.46147,18.339879 0,27.49238 -1.04458,20.717549 -4.18054,15.643587 0.60423,37.462144 1.09846,5.009002 3.43279,9.664531 5.13594,14.501474 1.31142,3.724447 2.54795,7.499479 3.92748,11.178219 0.66691,1.77843 -0.0787,3.66257 0.60423,5.43805 1.26867,3.29857 3.4118,6.30792 4.53171,9.66765 0.65651,1.96955 0.88811,4.06172 1.51057,6.04228 8.17342,26.00634 2.07823,6.24202 8.15708,23.26279 0.56777,1.58977 0.97674,3.23233 1.51057,4.83382 0.0712,0.21363 0.14288,0.76346 0.30211,0.60423 2.09424,-2.09424 2.08633,-18.50803 2.1148,-20.54375 0.15774,-11.27828 0.23206,-22.55762 0.30211,-33.83678 0.0307,-4.934435 -0.0796,-9.8697 0,-14.803589 0.0212,-1.312858 1.26694,-3.036883 0.30212,-3.927483 -1.03862,-0.958721 -2.81718,0.24779 -4.2296,0.302114 -1.20756,0.04645 -2.44903,0.276783 -3.62537,0 -4.73247,-1.113523 -1.01967,-0.588282 -1.51057,-1.51057 -3.28156,-6.165357 -6.93335,-12.139244 -9.96976,-18.428956 -4.17961,-8.657765 -3.32326,-13.956929 -3.32326,-24.471241 0,-4.033218 0.90776,-8.06278 0.60423,-12.08456 -0.0259,-0.343728 -2.295,-5.108676 -3.02114,-6.042283 -0.53542,-0.688403 -1.59028,-1.025918 -2.1148,-1.812684 -0.78999,-1.184989 -0.35672,-2.827089 -0.60422,-4.229597 -0.0722,-0.408898 -0.22069,-0.801303 -0.30212,-1.208456 -0.0198,-0.09875 0.10071,-0.302114 0,-0.302114 -0.90807,0 0.26412,4.87182 -0.30211,5.438053 -0.72619,0.726192 -0.60423,-1.99415 -0.60423,-3.021141 z"
       id="path4271" />
    <path
       style="fill:#410806;fill-opacity:1;stroke:#000000;stroke-width:0.264583px;stroke-linecap:butt;stroke-linejoin:miter;stroke-opacity:1"
       d="m 138.67035,50.150934 c 0,13.755944 -0.0972,32.137757 1.20846,43.504424 0.39693,3.455601 2.76111,6.390712 3.92748,9.667652 2.25053,6.32292 2.90834,9.99183 3.92748,16.61627 0.37037,2.4074 0.45747,4.85674 0.90635,7.25074 0.76091,4.05817 2.0475,8.01064 2.71902,12.08456 2.02422,12.28022 2.50021,24.78322 3.62537,37.16003 0.0735,0.80857 0.1052,1.62925 0.30212,2.41691 0.0244,0.0977 0.30211,-0.1007 0.30211,0 0,0.22518 -0.2309,0.39061 -0.30211,0.60423 -0.28838,0.86512 -0.13149,1.82321 -0.30212,2.71903 -0.25139,1.31984 -0.61488,2.61591 -0.90634,3.92748 -0.31278,1.40754 -2.34106,4.08612 -0.90634,4.2296 2.59954,0.25995 6.41287,-1.06839 6.94862,-3.62537 1.92071,-9.16702 1.2104,-18.85347 -0.30211,-28.09661 -2.14236,-13.09216 -7.49535,-25.46436 -10.574,-38.36849 -1.5743,-6.59867 -7.64998,-47.099056 -7.85496,-50.150927 -0.0607,-0.903147 1.38462,-10.044634 1.81268,-13.897247 1.53571,-13.821312 0.91935,-27.79795 1.51058,-41.691741 0.32274,-7.5845474 1.99251,-23.2088243 0.30211,-30.815634 -0.21846,-0.983066 -2.01368,0.889893 -2.41691,1.812684 -4.88982,11.1901522 -11.48151,22.062126 -13.29302,34.138889 -1.31638,8.775841 1.5827,17.813848 4.2296,26.283923 3.15228,10.0873 6.11972,-1.673109 5.13593,4.229597 z"
       id="path4770"
       clip-path="url(#clipPath5733)" />
    <path
       style="fill:#410806;fill-opacity:1;stroke:#000000;stroke-width:0.264583px;stroke-linecap:butt;stroke-linejoin:miter;stroke-opacity:1"
       d="m 182.17478,2.4169125 c 0,36.6969435 -1.17871,0.1859468 13.89724,71.2989185 1.32387,6.244651 1.67561,12.664874 2.1148,19.033186 0.53921,7.818423 -0.0161,4.993904 -0.90634,9.667653 -1.39107,7.30313 -2.41966,14.675 -3.32325,22.05432 -0.46656,3.81023 -0.5424,7.65894 -0.90634,11.48034 -0.35533,3.7309 -1.20846,7.43043 -1.20846,11.17822 0,2.71442 0.35939,4.40143 1.20846,6.94862 0.41711,1.25136 1.21517,2.14167 1.51056,3.32325 0.32102,1.28407 -0.30211,0.015 -0.30211,-0.30211 0.80564,8.05637 0.74894,16.24624 2.41691,24.16913 1.07641,5.11293 3.12157,12.89028 9.96977,10.8761 11.89706,-3.49913 11.6584,-30.17681 12.38667,-38.06637 0.0472,-0.51132 0.6229,-1.1096 0.30212,-1.51057 -0.31455,-0.39319 -1.00705,0 -1.51057,0 -2.1148,-1.00705 -5.36415,-0.89379 -6.3444,-3.02114 -4.02913,-8.74407 -5.26275,-18.52233 -7.85496,-27.79449 -0.67786,-2.42465 0,-5.03524 0,-7.55285 0,-8.76363 0.67912,-17.520625 0.60422,-26.283929 -0.0405,-4.74258 2.05644,-10.495894 -0.90634,-14.19936 -1.84439,-2.305483 -11.34032,-13.128855 -12.68879,-16.616275 -4.02837,-10.418209 -4.09078,-25.703934 -4.2296,-36.253686 -0.0135,-1.026901 0.40282,-2.014094 0.60423,-3.021141 C 188.21706,11.883153 191.10622,6.0448057 190.63397,0 c -0.13899,-1.7790706 -3.39267,-1.8919106 -5.13594,-1.5105703 -1.88979,0.413391 -3.03843,2.39560966 -4.53171,3.6253687 -1.47533,1.2149812 0.72704,0.4625879 1.20846,0.3021141 z"
       id="path4805"
       clip-path="url(#clipPath5729)" />
    <path
       style="fill:#410806;fill-opacity:1;stroke:#000000;stroke-width:0.264583px;stroke-linecap:butt;stroke-linejoin:miter;stroke-opacity:1"
       d="m 188.51917,127.19002 c -3.36731,14.21755 -5.56167,21.96418 -6.64651,38.6706 -2.30737,35.53353 4.68867,4.49528 -1.81268,33.53466 -0.51441,2.29771 -4.18698,12.86053 -3.02114,14.80359 0.34757,0.57928 1.15025,0.77386 1.81268,0.90634 1.95513,0.39103 3.44418,-2.39696 4.2296,-4.2296 3.4199,-7.97976 0.30212,-19.50567 0.30212,-28.0966 0,-3.83208 0.49927,-7.6497 0.60422,-11.48034 0.0965,-3.52334 -0.0678,-7.04998 0,-10.57399 0.033,-1.71462 -0.0863,-3.46557 0.30212,-5.13594 1.24165,-5.33911 3.1334,-8.96089 5.74016,-13.59513 0.75363,-1.33978 1.75006,-2.54247 2.41692,-3.92749 0.64945,-1.34887 0.91531,-2.85593 1.51057,-4.22959 0.24894,-0.57448 3.86951,-6.94045 3.32325,-8.76131 -0.16369,-0.54565 -0.76755,-0.84772 -1.20846,-1.20845 -1.53068,-1.25238 -3.29162,-2.9653 -5.43805,-0.60423 -2.80525,3.08577 -2.71903,3.8928 -2.71903,6.34439"
       id="path4875"
       clip-path="url(#clipPath5725)" />
    <path
       style="fill:#410806;fill-opacity:1;stroke:#000000;stroke-width:0.264583px;stroke-linecap:butt;stroke-linejoin:miter;stroke-opacity:1"
       d="m 174.31981,41.389627 c -0.0944,8.580948 -2.09856,17.103259 -1.81268,25.679693 0.20812,6.24351 3.49042,7.597267 5.74017,12.688792 1.06835,2.417863 1.52784,5.063471 2.41691,7.552851 5.54227,15.518367 -2.56547,-11.387809 5.74016,17.220507 2.15866,7.43538 0.96509,6.06448 5.13594,12.68879 0.0264,0.0419 2.10616,2.56149 2.71903,3.02114 0.0806,0.0604 0.31743,0.0995 0.30211,0 -0.67572,-4.39224 -2.86206,-9.47335 -4.22959,-13.29302 -1.80387,-5.0384 -3.52321,-10.10843 -5.43806,-15.105705 -2.21478,-5.780058 -4.99121,-11.348288 -6.94862,-17.220504 -3.62066,-10.861971 -2.82659,-22.049652 -3.62537,-33.232544 z"
       id="path4910" />
    <path
       style="fill:#410806;fill-opacity:1;stroke:#000000;stroke-width:0.264583px;stroke-linecap:butt;stroke-linejoin:miter;stroke-opacity:1"
       d="m 187.91494,88.217305 c -2.40499,-16.074604 4.54642,-30.891524 6.64651,-46.525566 1.78484,-13.287134 -0.59941,-3.59193 1.51057,-15.407816 0.0953,-0.533866 0.54746,-2.049902 0.60423,-1.51057 0.53919,5.122243 -0.576,14.827617 -1.51057,19.033185 -1.16133,5.225994 -3.41347,10.172435 -4.53171,15.407817 -1.49569,7.002555 -3.32325,22.722885 -3.32325,30.51352"
       id="path4945" />
    <path
       style="fill:#410806;fill-opacity:1;stroke:#000000;stroke-width:0.264583px;stroke-linecap:butt;stroke-linejoin:miter;stroke-opacity:1"
       d="m 172.80924,125.67945 c 29.9196,-68.171247 22.8819,-34.235011 25.6797,-97.884955 0.23455,-5.335996 -0.55819,10.671095 -0.60423,16.012043 -0.14311,16.600845 1.70078,19.419535 -2.1148,35.045232 -2.42915,9.947957 -4.31506,9.408622 -8.76131,17.82473 -1.38991,2.630897 -2.41691,5.43805 -3.62536,8.15708 -1.61128,3.62537 -3.22256,7.25074 -4.83383,10.87611 -1.40987,3.42395 -2.74999,6.87747 -4.2296,10.27187 -0.23464,0.53829 -0.33054,1.62573 -0.90634,1.51057 -0.62454,-0.12491 -0.40282,-1.20845 -0.60423,-1.81268 z"
       id="path4947" />
    <path
       style="fill:#410806;fill-opacity:1;stroke:#000000;stroke-width:0.264583px;stroke-linecap:butt;stroke-linejoin:miter;stroke-opacity:1"
       d="m 165.5585,1.8126844 c -0.77658,34.5909236 8.26995,35.9011236 17.52262,62.5376116 0.0337,0.09709 -0.0321,12.097594 0,12.386675 0.74372,6.693516 5.65136,12.260871 9.36554,17.522616 7.13436,10.107013 5.69443,8.578753 13.59513,16.918383 1.37126,1.44745 2.91664,5.73013 4.2296,4.2296 1.53098,-1.7497 -0.78153,-4.74184 -2.1148,-6.64651 -25.58162,-36.545167 13.71412,31.49347 -19.63742,-23.26278 -3.56108,-5.846559 -6.72395,-11.995417 -9.06342,-18.428959 -1.32398,-3.640934 -1.01456,-7.689249 -1.81268,-11.480334 -3.23595,-15.370739 -7.57052,-30.503488 -10.574,-45.921337 -0.23508,-1.2067797 0.99621,-6.3443953 -1.20845,-6.3443953"
       id="path5139"
       clip-path="url(#clipPath5721)" />
    <path
       style="fill:#410806;fill-opacity:1;stroke:#000000;stroke-width:0.264583px;stroke-linecap:butt;stroke-linejoin:miter;stroke-opacity:1"
       d="m 155.58874,94.863816 c 0,10.372584 -0.13707,20.746064 0,31.117744 0.16507,12.48995 1.3609,24.97939 0.90634,37.46215 -0.85588,23.50387 -4.20686,93.90366 -4.83382,70.39257 -1.2298,-46.11734 1.89167,-92.24833 3.02114,-138.368238 0.20141,-3.222548 0.40282,-6.445099 0.60423,-9.66765 0,0.746646 -0.14242,0.461812 0.30211,0.906343"
       id="path5174"
       clip-path="url(#clipPath5717)" />
    <path
       style="fill:#410806;fill-opacity:1;stroke:#000000;stroke-width:0.264583px;stroke-linecap:butt;stroke-linejoin:miter;stroke-opacity:1"
       d="m 183.38324,122.35619 c -9.46625,26.78745 -18.93249,53.5749 -28.39873,80.36235 2.51762,-0.60423 6.64958,0.61374 7.55285,-1.81269 4.69222,-12.6046 5.07812,-26.41708 7.85497,-39.57694 1.85607,-8.79614 3.46646,-17.67102 6.04228,-26.28392 0.7648,-2.55732 4.57034,-7.09176 6.04228,-9.66765 0.36029,-0.63052 0.99979,-1.11712 1.20846,-1.81269 0.11931,-0.3977 -0.20141,-0.80564 -0.30211,-1.20846 z"
       id="path5209" />
    <path
       style="fill:#410806;fill-opacity:1;stroke:#000000;stroke-width:0.264583px;stroke-linecap:butt;stroke-linejoin:miter;stroke-opacity:1"
       d="m 128.03256,146.4001 c -4.20101,9.41516 -2.13269,20.05466 -4.862,29.7122 -0.73458,2.5993 -3.94938,3.94039 -4.86199,6.48266 -1.67063,4.65389 -2.06833,9.68198 -2.70111,14.58599 -0.095,0.73636 0.0152,2.68588 0.54022,2.16089 7.575,-7.575 7.28985,-13.68829 9.72399,-24.30998 0.30231,-1.31915 5.14217,-20.09452 4.862,-22.1491 -0.31629,-2.31949 -1.80074,-4.32177 -2.70111,-6.48266 z"
       id="path5279" />
    <path
       style="fill:#410806;fill-opacity:1;stroke:#000000;stroke-width:0.264583px;stroke-linecap:butt;stroke-linejoin:miter;stroke-opacity:1"
       d="m 140.45766,123.17056 c -1.44059,-17.28709 12.13505,-57.346895 -4.32177,-51.861286 -16.59282,5.530937 1.34074,34.964136 2.70111,52.401516 0.62195,7.97235 2.77175,15.78697 3.24133,23.76975 0.43367,7.37249 0.30173,14.81202 -0.54023,22.1491 -0.42866,3.73554 -2.05229,7.23733 -3.24132,10.80443 -0.0805,0.2416 -0.54023,0.79489 -0.54023,0.54022 0,-9.46071 1.35032,-15.59152 3.24133,-25.39042 2.26562,-11.73999 4.2948,-15.17941 3.78155,-26.47087 -0.0183,-0.40224 -0.84361,-0.21457 -1.08044,-0.54022 -1.23516,-1.69835 -2.16089,-3.60148 -3.24133,-5.40222 z"
       id="path5314" />
  </g>
  <g
     inkscape:label="Layer 1"
     inkscape:groupmode="layer"
     id="layer1"
     transform="translate(-5.6866789,-4.6831474)">
    <path
       style="fill:#000080;stroke:#000000;stroke-width:0.264583px;stroke-linecap:butt;stroke-linejoin:miter;stroke-opacity:1"
       d="m 121.5,47.25 c -5.25962,0 -9.81639,-0.30549 -15.05769,2.076924 -2.68321,1.219639 -4.66588,3.627416 -6.750005,5.711536 -9.162158,9.162161 -13.470019,20.010162 -15.057691,32.711538 -0.3526,2.820808 0.815261,11.46185 0,13.500002 -1.328457,3.32114 -13.485511,14.07718 -12.980768,16.09615 1.174171,4.69669 8.307692,8.79724 8.307692,10.90385 0,0.54732 -1.102297,0.21563 -1.557692,0.51923 -0.474861,0.31657 -2.731347,2.57462 -2.596155,3.11538 0.55508,2.22032 3.255592,3.46591 4.153847,5.71154 0.693192,1.73298 -3.810669,2.93487 -3.115384,4.67308 1.063813,2.65953 4.275828,4.48849 4.673076,7.26923 0.457338,3.20137 -3.548322,13.47492 -2.076924,15.57692 4.540351,6.48622 10.185337,7.8027 17.653847,7.26923 6.488277,-0.46344 12.429767,-1.34364 18.692307,-2.59615 1.00103,-0.20021 2.7072,-0.0555 3.63462,-0.51923 0.1548,-0.0774 -0.0497,-0.35345 0,-0.51923 0.47181,-1.57271 1.25871,-3.05858 1.55769,-4.67308 2.49276,-13.46094 1.60355,-27.97293 2.59615,-41.53846 0.57061,-7.79832 1.53523,-15.565 2.07692,-23.365384 0.71782,-10.3365 0.51923,-19.720189 0.51923,-30.115385 0,-5.192308 0.36994,-10.39781 0,-15.576923 -0.0361,-0.505796 -0.72054,-5.432491 -1.55769,-5.711539 C 123.61662,47.436309 122.52135,47.505336 121.5,47.25 Z"
       id="path161" />
    <path
       style="fill:#ffffff;stroke:#000000;stroke-width:0.264583px;stroke-linecap:butt;stroke-linejoin:miter;stroke-opacity:1"
       d="m 92.423077,99.692305 c 0,-3.155079 -0.182161,-3.960788 1.557692,-7.78846 1.16895,-2.571692 7.094731,6.955139 7.269231,7.269231 0.71815,1.292674 0.51204,3.108194 1.55769,4.153844 0.12238,0.12239 0.51923,0.17308 0.51923,0 0,-0.17308 -0.34615,0 -0.51923,0 -1.61508,0 -10.497638,-0.54218 -10.903845,-1.55769 -0.26503,-0.66258 0.346155,-1.38462 0.519232,-2.076925 z"
       id="path196" />
    <path
       style="fill:#008080;stroke:#000000;stroke-width:0.264583px;stroke-linecap:butt;stroke-linejoin:miter;stroke-opacity:1"
       d="m 94.034678,93.159121 c 0,3.729379 -0.205222,4.391028 0.875553,8.405329 0.04292,0.15942 0.283171,-0.19935 0.350224,-0.35022 0.405096,-0.91146 0.808752,-1.834122 1.050666,-2.801775 0.170471,-0.681887 0.09299,-1.403276 0.175112,-2.101334 0.02606,-0.221581 0.418047,-1.858396 0.175111,-2.101334 -0.46138,-0.461378 -1.990209,-0.796084 -2.626666,-1.050666 z"
       id="path231" />
    <path
       style="fill:#ffffff;stroke:#000000;stroke-width:0.264583px;stroke-linecap:butt;stroke-linejoin:miter;stroke-opacity:1"
       d="m 78.624897,121.35201 c 0.291852,-0.46696 0.468096,-1.03047 0.875557,-1.40089 0.764966,-0.69542 2.723779,-0.49444 3.327111,0.35023 0.245896,0.34425 0.17511,1.23507 0.17511,1.57599 0,0.42925 0.09586,1.35297 0,1.40089 -0.320035,0.16002 -2.933129,-1.0835 -3.502221,-1.22577 -0.119735,-0.0299 -0.841881,0.0449 -0.875557,0 -0.140089,-0.18679 0,-0.46697 0,-0.70045 z"
       id="path334" />
    <path
       style="fill:none;stroke:#000000;stroke-width:0.264583px;stroke-linecap:butt;stroke-linejoin:miter;stroke-opacity:1"
       d="m 121.5,47.25 c -1.78164,-1.838632 -4.17781,-3.237156 -5.34493,-5.51589 -1.15472,-2.254517 4.83531,-9.166939 7.58802,-9.047255 1.30395,0.05669 2.55806,0.849886 3.50216,1.751081 4.06371,3.87899 3.86999,8.568835 4.37771,14.008653 0.81968,8.782322 0.58369,18.393174 0.58369,27.141762 0,14.656784 -0.0523,29.457559 1.45924,44.068879 0.3851,3.72266 1.01711,7.42034 1.75108,11.09019 1.12308,5.61542 3.97438,13.1904 2.91847,19.26189 -0.27186,1.56318 -1.98076,3.28267 -2.04293,4.9614 -0.26174,7.06684 0.56455,8.53111 -0.87554,16.05158 -0.28269,1.47626 -3.37361,8.36975 -3.79401,9.63095 -0.41044,1.2313 -0.53404,2.54183 -0.87554,3.79401 -0.52844,1.93759 -1.09312,4.66955 -3.50217,4.66955 -0.88137,0 -2.37021,-0.28003 -3.21031,0 -0.39156,0.13052 -1.28828,0.87554 -0.87554,0.87554 0.0973,0 0,-0.19457 0,-0.29185 0,-0.98145 -0.63797,-1.32431 -1.45924,-2.04292 -1.70689,-1.49353 -1.39011,-0.25348 -1.75108,-3.50217 -0.0215,-0.19337 0.40967,0.087 0.58369,0 0.70152,-0.35076 1.33081,-0.83871 2.04293,-1.16739 0.55864,-0.25783 1.30223,-0.16288 1.75109,-0.58369 1.16401,-1.09126 2.1436,-2.39925 2.91846,-3.79401 2.33245,-4.19841 2.1224,-10.38038 2.04293,-14.59234 -0.0317,-1.67906 -0.59945,-3.3049 -0.87554,-4.9614 -0.67171,-4.03027 0.27483,-8.18097 0,-12.25757 -0.31653,-4.69524 -1.39405,-9.31633 -1.75108,-14.00865 -0.61293,-8.05562 -0.14707,-13.62378 0.29185,-21.30483 0.17794,-3.11403 0.65004,-6.2207 0.58369,-9.3391 -0.12857,-6.042674 -0.87291,-12.057646 -1.16739,-18.094508 -0.37866,-7.762566 0.60425,-15.615857 0.87554,-23.347754 0.0682,-1.94445 -0.11425,-3.894648 0,-5.836939 0.17792,-3.024611 0.57407,-6.032449 0.87554,-9.047255 0.14822,-1.482111 2.12407,-7.647739 -1.75108,-8.46356 -3.46034,-0.728493 -5.19432,5.183576 -5.83694,7.004328 -0.18552,0.525663 -0.87554,1.95091 -0.87554,2.626622 0,0.137578 0.16133,-0.248341 0.29185,-0.291849 0.60408,-0.201359 1.08579,0.287845 1.55092,0.554495 z"
       id="path490" />
    <path
       style="fill:#ffffff;stroke-width:1.26429"
       d="m 460.95293,709.06234 c -8.58347,-7.77743 -8.14002,-10.90659 2.21076,-15.59985 12.59781,-5.71213 20.71147,-17.05581 24.29632,-33.96863 2.40452,-11.34417 2.37251,-42.39415 -0.0557,-54.03319 -1.36367,-6.5364 -1.79703,-15.83949 -1.59016,-34.13587 0.24511,-21.67785 -0.14692,-27.76944 -2.8391,-44.11514 -2.7984,-16.99065 -3.12623,-22.71444 -3.14991,-54.99669 -0.0145,-19.81777 0.78871,-47.12647 1.78497,-60.686 1.50316,-20.45849 1.54582,-28.63376 0.2507,-48.04309 -0.85839,-12.86417 -2.09534,-31.6343 -2.74879,-41.7114 -0.7732,-11.92374 -0.73391,-26.27268 0.11251,-41.08948 0.71532,-12.52212 1.81721,-37.5597 2.44864,-55.63907 0.63143,-18.07937 1.44417,-34.57838 1.80608,-36.66446 3.30487,-19.04954 4.67168,-34.95522 3.34836,-38.96492 -2.0258,-6.13825 -5.68576,-9.0207 -11.45391,-9.0207 -7.63839,0 -13.45333,6.67474 -18.95131,21.75346 -1.58425,4.34496 -3.60927,7.89993 -4.50004,7.89993 -2.72034,0 -11.94882,-11.46325 -11.94882,-14.84236 0,-4.93933 3.71568,-11.48026 10.97687,-19.32321 11.63654,-12.56885 18.28426,-13.86766 28.07683,-5.48558 6.32642,5.41518 11.13465,13.33281 13.51167,22.24945 3.84143,14.40991 5.44107,51.89785 6.11042,143.19873 0.93145,127.05192 3.77586,166.2304 15.40766,212.22308 5.79069,22.89665 8.09552,36.39673 8.09452,47.41198 -8.9e-4,9.66447 -0.45942,11.87048 -3.97863,19.14127 -3.97137,8.20494 -3.97815,8.25478 -4.3017,31.6073 -0.41786,30.15902 -1.67975,37.25051 -10.57374,59.42171 -4.04469,10.08273 -8.26503,22.44221 -9.37853,27.46554 -2.57706,11.62588 -6.33979,19.08767 -10.02661,19.88359 -1.5561,0.33592 -6.04727,0.77172 -9.98037,0.96845 -6.82333,0.34125 -7.41731,0.11644 -12.95899,-4.90485 z"
       id="path998"
       transform="scale(0.26458333)" />
    <path
       style="fill:#ffffff;stroke:#000000;stroke-width:0.231738px;stroke-linecap:butt;stroke-linejoin:miter;stroke-opacity:1"
       d="m 114.91004,25.875338 c 1.71705,-10.95221 7.36734,-18.7428295 16.15789,-18.7428295 0.73043,0 1.52076,0.3495859 2.05179,1.0040795 1.70644,2.103152 4.68811,9.509464 5.38596,11.714269 0.85669,2.706638 1.13541,5.694206 2.0518,8.367335 -0.25737,4.939113 4.53194,4.209171 5.64243,7.363254 1.05737,3.003166 1.21839,15.15179 1.28237,18.408137 0.0608,3.092558 0.26493,9.996661 -0.25647,12.718347 -0.11166,0.582857 -0.43726,-1.080847 -0.51295,-1.673468 -0.27035,-2.116785 -0.44692,-4.25486 -0.76942,-6.359173 -0.57501,-3.751838 -1.32052,-7.730697 -2.82122,-11.044882 -0.62725,-1.385234 -1.59388,-2.522397 -2.05179,-4.016321 -3.18984,-10.406671 -0.20403,-4.628293 -2.30827,-14.391814 -0.54632,-2.53486 -5.69473,-12.804605 -7.18128,-14.391816 -0.94737,-1.011509 -2.12677,-1.745556 -3.33417,-2.00816 -2.96321,-0.644487 -9.312,4.190124 -11.02839,7.363254 -0.48556,0.897669 -0.63195,2.041151 -1.0259,3.01224 -0.37736,0.930185 -0.85492,1.785031 -1.28238,2.677548 z"
       id="path1070" />
    <path
       style="fill:#ffffff;stroke:#000000;stroke-width:0.264583px;stroke-linecap:butt;stroke-linejoin:miter;stroke-opacity:1"
       d="m 140.49442,76.602909 c 1.82101,53.416311 -1.33138,5.819275 6.3557,57.201301 0.89739,5.99834 1.25228,21.75238 1.33804,28.09888 0.0512,3.79078 0.0702,7.58289 0,11.37336 -0.0413,2.23247 -0.23312,4.45966 -0.33451,6.69021 -0.0101,0.22278 0.0541,0.88537 0,0.66902 -0.67267,-2.6907 -0.62239,-8.32534 -0.66902,-9.7008 -0.62994,-18.58309 -0.21849,-6.81628 0,-29.10242 0.0557,-5.6864 0.35108,-11.38421 0,-17.06004 -0.31934,-5.16274 -1.07147,-10.30019 -2.00706,-15.38748 -1.98557,-10.796516 -6.90743,-21.66063 -4.68315,-32.782031 z"
       id="path1105" />
    <path
       style="fill:#ffffff;stroke:#000000;stroke-width:0.264583px;stroke-linecap:butt;stroke-linejoin:miter;stroke-opacity:1"
       d="m 161.90309,48.504025 c 0,3.233602 -0.0191,6.46726 0,9.700807 0.60552,102.332708 -1.75682,-6.544138 5.68668,89.648818 0.34507,4.45934 -0.62156,8.9241 -1.00353,13.38042 -3.08026,30.80256 0.80119,-10.21318 -1.33804,19.73612 -0.21582,3.02143 -0.62782,6.02606 -1.00353,9.03179 -0.10069,0.80549 -0.63041,3.15241 -0.66902,2.34157 -0.4719,-9.90987 1.5316,-19.60155 2.34157,-29.43693 0.44927,-5.45543 0.77565,-10.92185 1.00353,-16.39101 0.4652,-11.16472 0.0866,-22.29301 0.33451,-33.45105 0.0546,-2.45501 0.37998,-4.90405 0.33451,-7.35924 -0.16687,-9.011 -1.63986,-17.814058 -2.34157,-26.760838 -0.79278,-10.107938 -0.40266,-20.632293 -3.34511,-30.440457 z"
       id="path1140" />
    <path
       style="fill:#ffffff;stroke:#000000;stroke-width:0.264583px;stroke-linecap:butt;stroke-linejoin:miter;stroke-opacity:1"
       d="m 121.5,47.25 c -0.69325,-1.254546 -1.40343,-5.027382 -2.07974,-3.763632 -1.10612,2.066859 0.23042,4.682805 0.33451,7.024722 0.11892,2.675763 0.22746,5.351987 0.33451,8.028252 0.34613,8.653373 0.0253,17.483886 1.00353,26.091819 0.68242,6.005274 2.22169,11.21828 3.3451,17.060039 0.62856,3.26847 1.04021,6.42454 1.33805,9.7008 0.46571,5.12288 0.33451,-2.18404 0.33451,3.67962 0,0.44601 0,0.89203 0,1.33804 0,0.11151 -0.11151,0.33451 0,0.33451 0.42377,0 -0.62999,-17.015244 -0.66902,-18.732588 -0.31731,-13.961388 0.0207,-2.691643 0.33451,-13.045908 0.1486,-4.903904 -0.11963,-9.813769 0,-14.718464 0.13193,-5.409308 1.18295,-10.628246 1.33804,-16.056506 0.0478,-1.671871 0,-3.345104 0,-5.017657 0,-1.590436 0.46414,-2.799013 -1.00353,-3.679616 -2.00066,-1.20039 -4.68838,0.504381 -6.3557,1.338043 -0.22301,0.111504 -0.91148,0.276366 -0.66903,0.33451 0.78304,0.18778 1.60951,0.05601 2.41426,0.08402"
       id="path1175" />
  </g>
  <g
     inkscape:groupmode="layer"
     id="layer3"
     inkscape:label="Layer 3"
     transform="translate(-5.6866789,-4.6831474)">
    <path
       style="fill:#081c23;fill-opacity:1;stroke:#000000;stroke-width:0.264583px;stroke-linecap:butt;stroke-linejoin:miter;stroke-opacity:1"
       d="m 109.06317,65.558751 c -2.4597,4.919411 -1.15844,2.493918 -6.04228,10.271879 -1.08433,1.726904 -2.55714,3.24621 -3.323251,5.135938 -2.07401,5.115891 -1.167601,10.689752 0.604231,15.709932 1.01914,2.887578 5.52523,8.31389 3.62537,11.48033 -1.50858,2.51429 -6.490333,6.66093 -7.552855,9.36554 -4.035406,10.27194 -1.785556,21.58839 1.208456,31.72197 2.732279,9.2477 0.677756,2.90285 4.229599,11.78245 0.0748,0.18701 0,0.40282 0,0.60423 0.80564,1.81269 1.22672,3.85113 2.41691,5.43805 0.43988,0.58652 1.38292,0.56118 2.1148,0.60423 2.97935,0.17526 5.76183,-1.20845 8.76131,-1.20845 1.40986,0 2.81973,0 4.22959,0 0.40282,0 1.16397,0.40035 1.20846,0 0.39012,-3.51111 0.60071,-17.95792 0.60423,-18.12685 0.21399,-10.27162 0.40082,-20.54379 0.60423,-30.81563 0.002,-0.10069 -0.10071,0.30211 0,0.30211 0.1007,0 -0.005,-0.20153 0,-0.30211 0.29717,-6.04253 1.1434,-12.08166 0.90634,-18.126845 -0.36871,-9.402061 -1.84905,-18.727624 -2.71903,-28.096607 -0.4392,-4.729882 -0.82965,-9.464259 -1.20846,-14.199362 -0.22543,-2.81791 -0.29204,-5.649568 -0.60422,-8.459192 -0.0249,-0.223805 -0.60423,0.527296 -0.60423,0.302115 0,-1.293585 1.85662,-2.416913 3.02114,-2.416913 0.14242,0 -0.20141,0.201408 -0.30212,0.302114 -2.01409,2.014093 -4.14301,3.919567 -6.04227,6.042279 -5.26678,5.886394 -5.13595,5.945698 -5.13595,12.688792 z"
       id="path1787" />
    <path
       style="fill:#ffffff;stroke:#000000;stroke-width:0.264583px;stroke-linecap:butt;stroke-linejoin:miter;stroke-opacity:1"
       d="m 121.5,47.25 c -9.61865,0.804947 -12.08091,-1.626322 -13.10621,12.112673 -0.43341,5.80762 3.69389,14.605108 5.77867,20.137781 0.5012,1.330113 1.16167,2.626418 1.40089,4.027556 0.59173,3.465862 -1.70368,6.233665 -3.67734,8.755555 -0.16515,0.211023 -1.18947,1.116861 -1.40089,1.751113 -0.37483,1.124495 1.32169,7.646162 1.92623,8.580442 1.67728,2.59218 0.36182,-0.33861 1.92622,1.22578 0.82789,0.82789 0.56417,2.179 1.05066,3.152 0.0261,0.0522 0,-0.11674 0,-0.17511 0,-0.39562 -0.0261,0.0783 0.17512,-0.52533 1.43538,-4.30617 1.39275,-4.77533 3.152,-9.105783 1.03395,-2.545119 0.64461,0.990436 0.52533,1.575999 -0.62589,3.072574 -1.78705,8.477204 -3.32711,11.557334 -0.0792,0.15842 1.37091,3.80829 1.40089,4.37778 0.0491,0.93263 0.0583,1.86967 0,2.80178 -0.31685,5.06948 0.0207,5.12692 -2.10134,9.10578 -0.90216,1.69156 -1.37617,2.20255 -3.32711,2.62666 -0.62742,0.1364 -1.35193,0.28715 -1.92622,0 -1.35669,-0.67834 -2.35938,-7.50215 -1.576,-8.75555 0.12375,-0.19799 0.60847,-0.21461 0.70044,0 0.49636,1.15816 0.65406,2.43691 0.87556,3.67733 0.0718,0.40223 0,0.81718 0,1.22578 0,0.0584 -0.0584,0.17511 0,0.17511 0.0584,0 0.007,-0.11714 0,-0.17511 -0.10997,-0.93475 -0.14291,-1.8837 -0.35022,-2.80178 -0.20328,-0.90025 -0.46282,-1.80119 -0.87556,-2.62667 -0.0288,-0.0577 -1.60311,-1.26531 -1.75111,-0.52533 -0.16026,0.80132 0,1.63437 0,2.45155 0,0.64208 -0.15573,1.30332 0,1.92623 0.14575,0.58301 0.57985,1.05282 0.87556,1.576 1.18707,2.10021 2.40419,4.12407 4.20266,5.77866 1.73665,1.59772 2.56859,2.7434 4.90311,2.62667 0.11515,-0.006 2.44921,-0.73452 2.80178,-0.87555 0.10839,-0.0434 -0.0769,-0.26237 0,-0.35023 0.38051,-0.43486 0.79983,-0.83531 1.22578,-1.22577 0.84465,-0.77427 2.02038,-1.31994 2.80178,-2.10134 0.44919,-0.44918 1.04113,-2.73925 1.05067,-2.80177 0.41603,-2.72734 1.02691,-5.47549 0.87555,-8.23023 -0.43498,-7.91655 -1.631,-15.77427 -2.62666,-23.64 -0.33149,-2.618695 -1.14703,-5.612492 -1.75112,-8.230224 -0.46237,-2.003602 0.65071,-4.073228 0.70045,-6.128887 C 122.31701,69.266053 121.76239,58.194394 121.5,47.25 Z"
       id="path369" />
    <path
       style="fill:#ffffff;stroke:#000000;stroke-width:0.264583px;stroke-linecap:butt;stroke-linejoin:miter;stroke-opacity:1"
       d="m 86.68001,83.878231 c 0,0.408593 -0.02718,0.818089 0,1.225778 0.0313,0.469556 0.01683,0.957709 0.175109,1.400889 0.425828,1.192313 1.560491,2.101334 2.801779,2.101334 0.05837,0 0.145081,0.05005 0.175112,0 0.335758,-0.559602 0.488434,-1.225733 0.875556,-1.751113 1.105517,-1.500344 2.610437,-2.387775 4.377777,-2.976888 0.611638,-0.20388 1.28206,-0.14827 1.926223,-0.175112 3.459634,-0.14415 4.329134,0.169556 6.479114,2.626667 0.21743,0.248497 0.70044,0.370253 0.70044,0.700445 0,0.31986 -0.45116,-0.921031 -1.05066,-1.751111 -1.36265,-1.886733 -3.02021,-4.042732 -5.078226,-5.253333 -2.512716,-1.478069 -7.530748,1.156409 -9.631114,2.626667 -0.640728,0.448508 -1.023519,0.86198 -1.75111,1.225777 z"
       id="path447" />
    <path
       style="fill:#ffffff;stroke:#000000;stroke-width:0.264583px;stroke-linecap:butt;stroke-linejoin:miter;stroke-opacity:1"
       d="m 103.31557,100.6889 c -0.74573,-2.73433 -0.99927,-4.054882 -2.80178,-7.004446 -0.34704,-0.567881 -1.076966,-0.785453 -1.576002,-1.225778 -1.983285,-1.749956 -1.513388,-2.003343 -4.202666,-2.451555 -0.237394,-0.03956 -0.472128,-0.251216 -0.700444,-0.175111 -0.461333,0.153778 -1.175777,2.110443 -1.926223,2.451555 -0.375748,0.170793 -0.814353,0.142197 -1.22578,0.175111 -2.246826,0.179748 -3.203318,0.37156 -5.253334,-0.175111 -0.20335,-0.05423 -0.525332,-0.139764 -0.525332,-0.350221 0,-0.314804 0.447939,-0.0078 1.75111,0.525332 0.872794,0.357053 1.771073,0.654172 2.62667,1.050666 3.128263,1.449687 6.172456,3.091355 9.105778,4.903113 0.496612,0.306731 0.9227,0.715933 1.400889,1.050666 0.503544,0.35248 1.247064,0.581529 1.751114,0.875559 0.36357,0.21208 0.63977,0.60913 1.05066,0.70044 0.20545,0.0457 0.35023,-0.23348 0.52534,-0.35022 z"
       id="path299" />
  </g>
</svg>
