<?xml version="1.0" encoding="UTF-8" standalone="no"?>
<!-- Created with Inkscape (http://www.inkscape.org/) -->

<svg
   width="102.52547mm"
   height="153.08403mm"
   viewBox="0 0 102.52547 153.08403"
   version="1.1"
   id="svg5"
   inkscape:version="1.1.2 (b8e25be8, 2022-02-05)"
   sodipodi:docname="fire.svg"
   xmlns:inkscape="http://www.inkscape.org/namespaces/inkscape"
   xmlns:sodipodi="http://sodipodi.sourceforge.net/DTD/sodipodi-0.dtd"
   xmlns="http://www.w3.org/2000/svg"
   xmlns:svg="http://www.w3.org/2000/svg">
  <sodipodi:namedview
     id="namedview7"
     pagecolor="#ffffff"
     bordercolor="#666666"
     borderopacity="1.0"
     inkscape:pageshadow="2"
     inkscape:pageopacity="0.0"
     inkscape:pagecheckerboard="0"
     inkscape:document-units="mm"
     showgrid="false"
     inkscape:zoom="0.5095679"
     inkscape:cx="-167.78922"
     inkscape:cy="447.43792"
     inkscape:window-width="1312"
     inkscape:window-height="794"
     inkscape:window-x="0"
     inkscape:window-y="25"
     inkscape:window-maximized="0"
     inkscape:current-layer="layer1" />
  <defs
     id="defs2" />
  <g
     inkscape:groupmode="layer"
     id="layer2"
     inkscape:label="Layer 2"
     transform="translate(-54.841904,-29.881732)">
    <path
       style="fill:#ff0000;stroke:#000000;stroke-width:0.264583px;stroke-linecap:butt;stroke-linejoin:miter;stroke-opacity:1"
       d="m 99.173076,30.115384 c 0,11.981042 0.438909,31.552131 -2.596153,41.538461 -8.032832,26.430603 -27.654093,36.550605 -38.423077,62.826925 -12.786026,31.1979 15.353078,47.42521 41.538461,48.28846 14.889833,0.49087 33.640733,-1.65075 45.173073,-12.98077 14.54572,-14.29053 14.7764,-38.28797 8.30769,-56.07692 -0.98441,-2.70715 -3.07522,-4.87245 -4.67307,-7.26923 -0.66924,-1.00386 -0.4997,-0.50786 -0.51923,0 -0.16644,4.32718 0.25541,8.72023 -0.51924,12.98077 -0.77786,4.27825 -4.7633,14.92218 -8.82692,18.17307 -0.17619,0.14096 0.47921,-1.31753 0.51923,-1.55769 0.31429,-1.88569 0.39999,-3.80356 0.51923,-5.71154 0.22698,-3.63164 0.79138,-7.2753 0.51924,-10.90384 -0.26656,-3.55401 -3.35751,-15.14027 -4.67308,-18.69231 -4.92616,-13.300632 -0.83575,0.7952 -3.63462,4.15385 -2.13992,2.56791 -6.08752,2.88978 -9.34615,3.63461 -16.00396,3.65805 -14.89393,-4.32147 -15.57692,-16.615382 -0.25772,-4.639 -2.54855,-22.759017 1.55769,-28.038463 1.97653,-2.541254 5.07236,-3.983114 7.78846,-5.711539 0.14602,-0.09292 0.51923,0.173077 0.51923,0 0,-0.173077 -0.35132,0.04198 -0.51923,0 -1.1949,-0.298728 -1.55932,-0.594805 -2.07692,-1.038463 C 100.56949,45.405718 105.27099,50.594758 96.576923,33.75 96.221921,33.062186 95.53846,32.447099 95.53846,31.673076 c 0,-0.346154 0.720296,0.136359 1.038463,0 0.927603,-0.397544 1.730769,-1.03846 2.596153,-1.557692 z"
       id="path460" />
  </g>
  <g
     inkscape:label="Layer 1"
     inkscape:groupmode="layer"
     id="layer1"
     transform="translate(-54.841904,-29.881732)">
    <path
       style="fill:#ffff00;stroke:#000000;stroke-width:0.253999px;stroke-linecap:butt;stroke-linejoin:miter;stroke-opacity:1"
       d="m 116.33093,131.5602 c 29.22358,41.01404 -26.314869,38.76841 -33.217407,26.41908 -4.135171,-7.39826 5.080436,-16.17426 7.381641,-24.33136 2.472365,-8.76389 9.411182,-34.511725 10.378506,-44.846272 0.15484,-1.654296 -1.11148,-3.132384 -1.612129,-4.716708 -0.07078,-0.22404 0.302097,0.393804 0.320049,0.628104 0.21684,2.830944 0.46438,5.67126 0.37986,8.509236 -0.840213,28.21068 -1.113914,23.7724 -6.064086,52.53748 -0.597744,3.47359 -1.982972,6.89692 -1.812509,10.41745 0.09092,1.87763 0.998931,6.07169 2.560252,5.02479 6.467363,-4.33653 16.705283,-21.19625 21.685803,-29.64182 z"
       id="path77" />
  </g>
</svg>
