<?xml version="1.0" encoding="UTF-8" standalone="no"?>
<!-- Created with Inkscape (http://www.inkscape.org/) -->

<svg
   width="70.954521mm"
   height="109.7902mm"
   viewBox="0 0 70.954521 109.7902"
   version="1.1"
   id="svg1112"
   inkscape:version="1.1.2 (b8e25be8, 2022-02-05)"
   sodipodi:docname="person.svg"
   xmlns:inkscape="http://www.inkscape.org/namespaces/inkscape"
   xmlns:sodipodi="http://sodipodi.sourceforge.net/DTD/sodipodi-0.dtd"
   xmlns="http://www.w3.org/2000/svg"
   xmlns:svg="http://www.w3.org/2000/svg">
  <sodipodi:namedview
     id="namedview1114"
     pagecolor="#ffffff"
     bordercolor="#666666"
     borderopacity="1.0"
     inkscape:pageshadow="2"
     inkscape:pageopacity="0.0"
     inkscape:pagecheckerboard="0"
     inkscape:document-units="mm"
     showgrid="false"
     inkscape:zoom="1.0654222"
     inkscape:cx="-29.096445"
     inkscape:cy="180.21024"
     inkscape:window-width="1411"
     inkscape:window-height="794"
     inkscape:window-x="0"
     inkscape:window-y="25"
     inkscape:window-maximized="0"
     inkscape:current-layer="layer1" />
  <defs
     id="defs1109">
    <inkscape:path-effect
       effect="simplify"
       id="path-effect6012"
       is_visible="true"
       lpeversion="1"
       steps="1"
       threshold="0.000408163"
       smooth_angles="360"
       helper_size="0"
       simplify_individual_paths="false"
       simplify_just_coalesce="false" />
    <inkscape:path-effect
       effect="simplify"
       id="path-effect5975"
       is_visible="true"
       lpeversion="1"
       steps="1"
       threshold="0.000408163"
       smooth_angles="360"
       helper_size="0"
       simplify_individual_paths="false"
       simplify_just_coalesce="false" />
    <inkscape:path-effect
       effect="simplify"
       id="path-effect5938"
       is_visible="true"
       lpeversion="1"
       steps="1"
       threshold="0.000408163"
       smooth_angles="360"
       helper_size="0"
       simplify_individual_paths="false"
       simplify_just_coalesce="false" />
    <inkscape:path-effect
       effect="simplify"
       id="path-effect5901"
       is_visible="true"
       lpeversion="1"
       steps="1"
       threshold="0.000408163"
       smooth_angles="360"
       helper_size="0"
       simplify_individual_paths="false"
       simplify_just_coalesce="false" />
    <inkscape:path-effect
       effect="simplify"
       id="path-effect5704"
       is_visible="true"
       lpeversion="1"
       steps="1"
       threshold="0.000408163"
       smooth_angles="360"
       helper_size="0"
       simplify_individual_paths="false"
       simplify_just_coalesce="false" />
    <inkscape:path-effect
       effect="simplify"
       id="path-effect4975"
       is_visible="true"
       lpeversion="1"
       steps="1"
       threshold="0.000408163"
       smooth_angles="360"
       helper_size="0"
       simplify_individual_paths="false"
       simplify_just_coalesce="false" />
    <inkscape:path-effect
       effect="simplify"
       id="path-effect4938"
       is_visible="true"
       lpeversion="1"
       steps="1"
       threshold="0.000408163"
       smooth_angles="360"
       helper_size="0"
       simplify_individual_paths="false"
       simplify_just_coalesce="false" />
    <inkscape:path-effect
       effect="simplify"
       id="path-effect4901"
       is_visible="true"
       lpeversion="1"
       steps="1"
       threshold="0.000408163"
       smooth_angles="360"
       helper_size="0"
       simplify_individual_paths="false"
       simplify_just_coalesce="false" />
    <inkscape:path-effect
       effect="simplify"
       id="path-effect4864"
       is_visible="true"
       lpeversion="1"
       steps="1"
       threshold="0.000408163"
       smooth_angles="360"
       helper_size="0"
       simplify_individual_paths="false"
       simplify_just_coalesce="false" />
    <inkscape:path-effect
       effect="simplify"
       id="path-effect6012-9"
       is_visible="true"
       lpeversion="1"
       steps="1"
       threshold="0.000408163"
       smooth_angles="360"
       helper_size="0"
       simplify_individual_paths="false"
       simplify_just_coalesce="false" />
  </defs>
  <g
     inkscape:label="Layer 1"
     inkscape:groupmode="layer"
     id="layer1"
     transform="translate(-67.30003,-98.718324)">
    <path
       style="fill:#000080;stroke:#000000;stroke-width:0.264583px;stroke-linecap:butt;stroke-linejoin:miter;stroke-opacity:1"
       d="m 100.73077,117.86538 c 0.6923,-1.21153 1.61251,-2.31877 2.07692,-3.63461 0.26003,-0.73675 1.63779,-7.10351 1.03846,-7.78846 -1.22047,-1.39483 -7.647051,-3.2568 -9.346152,-1.5577 -2.098704,2.09871 -4.076729,11.1352 -3.115384,14.01923 0.347141,1.04142 5.406866,-2.32581 4.673078,2.07693 -0.414292,2.48575 -1.521859,4.81108 -2.076923,7.26923 -4.256744,18.85129 -7.684003,38.05747 -12.980771,56.59615 -0.916535,3.20788 -1.784326,6.61808 -2.596152,9.86539 l -1.038463,4.15384 c -0.04198,0.16791 0.164195,0.57396 0,0.51923 -1.067435,-0.35581 -9.46604,-4.55318 -9.865384,-4.15384 -0.346154,0.34615 0.732652,0.65619 1.038461,1.03846 0.389834,0.48729 0.717399,1.02258 1.038463,1.55769 2.269159,3.78193 5.988962,5.45786 9.865383,6.75 1.923159,0.64105 3.683051,-3.05532 4.153848,-4.15385 2.915409,-6.80262 5.028379,-14.24579 7.269231,-21.28846 0.54788,-1.72191 0.986274,-3.47806 1.557692,-5.1923 0.294738,-0.88422 0.379404,-1.9371 1.03846,-2.59616 -1.590534,46.66691 0.626072,27.23873 0,-7.78846 v -26.48077 -9.86538 c -0.07992,-9.32219 -2.010368,-6.50264 -1.03846,1.03846 0.106667,23.4287 2.841761,104.23984 2.076921,40.5 0,-4.62563 -1.10649,-4.15385 1.557694,-4.15385 1.701573,0 2.713951,3.56508 3.115384,4.15385 4.763324,6.98621 10.681764,12.87755 15.576924,19.73077 0.18352,0.25693 4.50227,5.53391 4.15384,6.23077 -0.49561,0.99123 -1.88668,1.22555 -2.59615,2.07692 -1.90063,2.28076 -3.6689,5.69614 -5.19231,8.30769 -0.5085,0.87173 -0.99788,1.75645 -1.55769,2.59615 -0.13577,0.20367 -0.75144,0.44183 -0.51923,0.51924 0.65678,0.21892 1.42014,0.21892 2.07692,0 5.68769,-1.8959 6.77307,-4.40934 9.86539,-8.82693 0.42109,-0.60156 1.11711,-0.97025 1.55769,-1.55769 2.53014,-3.37352 -2.67757,-16.693 -3.63462,-19.21154 -3.68222,-9.69006 -8.68174,-21.37215 -11.9423,-31.15384 -2.46154,-7.3846 -2.45455,-15.17569 -3.63462,-22.84616 -0.0977,-0.63495 -2.16475,-7.1814 -2.59615,-6.75 -0.89097,0.89097 0.73286,2.41222 1.03846,3.63462 0.26627,1.06509 -0.35947,0.11982 -1.03846,0.51923 -2.689399,1.582 -5.068984,3.6626 -7.788464,5.19231 -2.834206,1.59424 -5.988267,2.56754 -8.826924,4.15384 -3.059266,1.70959 -5.975159,3.67457 -8.82692,5.71154 -2.001692,1.42978 -7.18747,2.70517 -5.711539,4.67308 1.543783,2.05838 4.99001,-1.40228 7.269231,-2.59615 5.022154,-2.63066 9.676968,-5.91003 14.53846,-8.82693 3.792505,-2.2755 7.969464,-3.98711 11.423076,-6.75 6.62855,-5.30284 13.51816,-11.26211 20.76923,-16.09615 0.36195,-0.2413 3.16522,-2.83086 4.67308,-2.07693 0.1548,0.0774 0,0.34616 0,0.51924 0,5.63921 0.72954,2.28069 -1.55769,5.71154 -6.00673,9.01008 -4.70821,7.81314 -8.3077,19.21153 -0.87367,2.76663 -1.81964,5.51224 -2.59615,8.3077 -0.0927,0.33352 -0.27692,0.83076 0,1.03846 2.35458,1.76594 8.6123,3.69553 10.90385,4.15384 0.47797,0.0956 8.26193,1.12242 9.86538,0 0.95116,-0.66581 1.64041,-1.9573 1.55769,-3.11538 -0.74365,-10.41111 -5.80767,-20.63453 -8.30769,-30.63462 -0.76713,-3.06851 2.59939,-5.92311 4.15385,-7.78846 0.79899,-0.9588 3.26095,-2.72071 2.07692,-3.115385 -2.30147,-0.767156 -6.68386,-1.428707 -8.82692,0 -0.64514,0.430095 1.6232,1.559315 2.59615,4.153845 0.71966,1.9191 -0.62078,2.17847 -1.55769,3.11539 -0.12238,0.12238 0.1548,0.44183 0,0.51923 -0.30961,0.1548 -0.72885,-0.15481 -1.03846,0 -6.90238,3.45119 -10.33549,7.86017 -16.09616,12.98077 -0.67514,0.60013 -8.24525,6.42705 -10.38461,7.78846 -1.742188,1.10866 -3.97127,1.80305 -5.192309,3.63461 -2.165128,3.24769 1.147643,16.50621 -1.038463,18.69231 -1.9656,1.9656 -12.461537,-12.80113 -12.461537,-14.53846 0,-0.17308 0.346152,0 0.519229,0 1.833954,0 3.346246,0.0932 5.192308,0.51923 2.456952,0.56699 4.753981,1.09518 7.175291,1.16401 0.875948,0.0249 1.768161,-0.0103 2.690095,-0.12555 2.214834,-0.27686 5.016636,-7.43517 5.711536,-9.34615 0.23659,-0.65063 -0.61922,-2.38654 0,-2.07693 2.63168,1.31584 2.75248,5.20132 4.15385,7.78847 1.0748,1.98425 2.42308,3.80769 3.63461,5.71153 1.5577,2.94231 3.09471,5.89566 4.67308,8.82693 1.21154,2.25 2.36676,4.53125 3.63462,6.75 0.23333,0.40833 2.5971,3.11443 2.07692,3.63461 -0.304,0.304 -4.47762,-1.88147 -6.23077,-3.63461 -2.86373,-2.86373 -7.93571,-7.56373 -9.86539,-11.42308 -2.74452,-5.48905 -2.11251,-14.23281 -3.11538,-20.25 -0.32442,-1.94653 -1.03846,-3.80769 -1.55769,-5.71154 z"
       id="path1149"
       sodipodi:nodetypes="csssssssscssssssssccccccsssssssscssssssssssssssssssssccsssssssssscsssssssssssscssssssc" />
    <path
       style="fill:#000080;stroke:#000000;stroke-width:0.264583px;stroke-linecap:butt;stroke-linejoin:miter;stroke-opacity:1"
       d="m 103.38924,123.47827 c -0.66218,0 -1.18686,-0.10327 -1.73182,0.51954 -0.45565,0.52075 -0.35834,3.35217 0.86591,2.94409 0.1549,-0.0516 0.20033,-0.27335 0.34636,-0.34637 0.0615,-0.0307 0.50356,-0.14121 0.51955,-0.17318 0.12471,-0.24942 -0.73964,-1.46481 0,-2.94408 z"
       id="path3310" />
    <path
       style="fill:#000080;stroke:#000000;stroke-width:0.264583px;stroke-linecap:butt;stroke-linejoin:miter;stroke-opacity:1"
       d="m 104.08196,127.28826 c -0.25213,-0.1891 -1.34566,-1.12334 -1.73181,-0.86591 -0.41038,0.27359 -0.43132,0.90019 -0.51954,1.38545 -0.37533,2.06428 -0.92039,4.13711 -0.86591,6.23453 0.0605,2.3273 1.28668,9.14599 2.7709,11.94951 0.75211,1.42065 2.12524,1.03743 2.7709,-0.17318 0.79089,-1.48292 0.95382,-5.01434 0.69272,-6.58089 -0.0811,-0.48651 -0.41476,-0.90349 -0.51954,-1.38545 -0.18557,-0.85364 -0.19455,-1.73745 -0.34636,-2.59772 -0.30905,-1.75128 -0.91991,-3.44131 -1.21227,-5.19544 -0.15193,-0.91159 0.0806,-1.57055 -0.34636,-2.42454"
       id="path3345" />
    <path
       style="fill:#000080;stroke:#000000;stroke-width:0.264583px;stroke-linecap:butt;stroke-linejoin:miter;stroke-opacity:1"
       d="m 96.461986,136.64005 c -1.749689,-0.27086 -2.314683,0.37802 -3.636809,1.03908 -0.41379,0.2069 -1.001122,0.32738 -1.385451,0.51955 -1.310367,0.65518 -1.731811,4.77833 -1.731811,5.88816 0,0.93981 -0.184341,2.19556 0,3.11727 0.204835,1.02418 0.110873,0.0174 0.519543,1.03909 0.894737,2.23683 0.928815,3.0133 1.039088,5.71498 0.167905,4.11368 -0.221996,8.19179 -0.346363,12.29587 -0.04882,1.61098 -0.376524,3.27369 1.21227,4.15635 0.17426,0.0968 1.448417,0.29911 1.558631,0.51955 0.121476,0.24294 0,0.94205 0,1.21226 0,0.51756 0.0902,0.88758 0.173181,1.38545 0.02847,0.17083 0,0.69273 0,0.51955 0,-3.20898 -0.737373,-7.25705 0,-10.39088 0.09534,-0.40521 0.27645,-1.03909 0.692727,-1.03909 0.289885,0 -1.149438,8.88028 0.692724,-1.55863 0.918456,-5.20459 0.353338,-4.09613 1.21227,-8.3127 1.301779,-6.39056 1.643274,-6.23048 2.424539,-12.81542 0.286316,-2.41324 1.079103,-5.755 -1.731815,-2.94408"
       id="path3380" />
    <path
       style="fill:#000080;stroke:#000000;stroke-width:0.264583px;stroke-linecap:butt;stroke-linejoin:miter;stroke-opacity:1"
       d="m 94.556992,162.27088 c -3.726135,2.17358 -1.588101,0.17682 -2.597719,6.23453 -0.306753,1.84051 -0.692727,1.56341 -0.692727,2.59772 0.09051,0.011 0.529701,-0.41772 0.692727,-0.17318 0.172439,0.25866 0.06831,1.00493 0.34636,0.8659 0.426279,-0.21314 0.422813,-1.81605 0.519544,-2.25135 0.05163,-0.23235 0.134054,-0.92751 0.173183,-0.69273 0.194464,1.16679 -0.173183,2.15962 -0.173183,3.29044 0,0.11546 -0.028,-0.23435 0,-0.34636 0.190434,-0.76173 0.433343,-1.51026 0.692727,-2.25135 0.71011,-2.02889 1.619496,-4.0078 2.251355,-6.06135 0.139994,-0.45498 0.682967,-1.04885 0.346364,-1.38545 -0.154501,-0.1545 -1.315085,0.13259 -1.558631,0.17318 z"
       id="path3415" />
    <path
       style="fill:#ffffff;stroke:#000000;stroke-width:0;stroke-linecap:butt;stroke-linejoin:miter;stroke-miterlimit:4;stroke-dasharray:none;stroke-opacity:1"
       d="m 92.132453,120.361 c -0.370451,0.0751 -0.744645,0.12935 -1.117071,0.19344 -0.17601,0.0303 -0.35416,0.0568 -0.523501,0.11531 -0.106863,0.037 -0.211494,0.0949 -0.278726,0.18856 -0.0754,0.10505 -0.103588,0.23524 -0.118564,0.36124 -0.02658,0.22359 -0.02629,0.44928 -0.02559,0.67407 0.0016,0.51981 -2.83e-4,1.0396 -0.0093,1.55941 -0.0069,0.39745 -0.03907,0.79394 -0.04672,1.19137 -0.0088,0.45649 0.0053,0.91697 0.09946,1.36505 0.06969,0.33152 0.186247,0.65846 0.382803,0.9371 0.15641,0.22173 0.36929,0.40243 0.613008,0.52227 0.212193,0.10434 0.447622,0.17393 0.686286,0.16157 0.194272,-0.0101 0.381708,-0.0817 0.542644,-0.18929 0.217184,-0.14516 0.392097,-0.34318 0.552874,-0.5468 0.210736,-0.26689 0.398134,-0.55182 0.620319,-0.80983 0.09739,-0.11309 0.231695,-0.18343 0.359685,-0.25568 0.11722,-0.0662 0.240234,-0.13454 0.32098,-0.24499 0.09703,-0.13273 0.161422,-0.2895 0.182426,-0.45292 0.02544,-0.1979 -0.0024,-0.39745 0.0093,-0.59598 0.03643,-0.61654 0.185229,-1.22119 0.206219,-1.83912 0.0075,-0.21959 -0.0059,-0.43978 -0.04039,-0.65694 -0.05363,-0.33754 -0.108482,-0.67612 -0.202557,-1.00514 -0.07238,-0.25313 -0.172548,-0.50298 -0.334008,-0.71353 -0.139412,-0.1818 -0.324849,-0.32349 -0.52477,-0.43298 -0.17439,-0.0955 -0.357668,-0.1747 -0.545581,-0.23911 -0.262397,-0.0899 -0.548325,-0.11352 -0.820907,-0.0588 -0.316164,0.0635 -0.613393,0.22142 -0.841165,0.44877 -0.0702,0.0701 -0.146521,0.14116 -0.184069,0.2336 -0.01039,0.0256 -0.04261,0.0804 -0.0087,0.0874 0.06294,0.0129 0.127364,0.0187 0.191473,0.0227 0.284915,0.0176 0.569258,-0.0207 0.854086,-0.0207 z"
       id="path4899"
       inkscape:path-effect="#path-effect4901"
       inkscape:original-d="m 92.132453,120.361 c -2.516007,0.50321 -1.973122,-0.17628 -2.078175,3.29045 -0.03059,1.00956 -0.30629,3.1373 1.039088,3.80999 1.274794,0.6374 1.783103,-0.66384 2.424538,-1.38545 0.191759,-0.21573 0.53262,-0.27939 0.692724,-0.51955 0.249582,-0.37437 0.149707,-0.66346 0.173181,-1.03908 0.05054,-0.80866 0.296386,-1.62372 0.173183,-2.42454 -0.238192,-1.54825 -0.444781,-2.00685 -1.558632,-2.42454 -1.214286,-0.45536 -2.058596,0.66713 -1.904994,0.69272 0.341648,0.057 0.692724,0 1.039087,0 z" />
    <path
       style="fill:#ffffff;stroke:#000000;stroke-width:0;stroke-linecap:butt;stroke-linejoin:miter;stroke-miterlimit:4;stroke-dasharray:none;stroke-opacity:1"
       d="m 95.988852,166.73062 c -0.426603,0.16597 -0.898857,0.15798 -1.323212,0.33215 -0.196226,0.0805 -0.369758,0.2328 -0.441077,0.43718 -0.121326,0.34769 -0.204829,0.70724 -0.288862,1.06528 -0.442443,1.88514 -0.822949,3.78405 -1.2535,5.67192 -0.116795,0.51212 -0.260016,1.01772 -0.418119,1.51855 -0.230722,0.73087 -0.469589,1.46028 -0.638838,2.20892 -0.325249,1.43867 -0.623647,2.88555 -0.8093,4.34977 -0.135819,1.07118 -0.258501,2.14399 -0.405762,3.21376 -0.179299,1.30251 -0.39252,2.60006 -0.624901,3.89408 -0.167883,0.93486 -0.318074,1.87361 -0.41003,2.81937 -0.06743,0.6935 -0.124599,1.38846 -0.151501,2.08473 -0.03101,0.80266 0.04522,1.6063 0.01013,2.4083 -0.01471,0.33622 -0.152319,0.65755 -0.137831,0.99634 0.0062,0.1439 0.07223,0.27891 0.174108,0.38249 0.483283,0.49134 1.077826,0.86245 1.703117,1.14431 0.845905,0.38131 1.768554,0.61947 2.700254,0.60929 0.712962,-0.008 1.437184,-0.1893 2.029213,-0.59942 0.375538,-0.26015 0.668904,-0.61986 0.907947,-1.00703 0.754305,-1.22173 1.214709,-2.60049 1.523634,-3.99593 0.411421,-1.85842 0.590715,-3.75602 0.834939,-5.6407 0.386218,-2.98045 0.658836,-5.97737 0.761195,-8.98132 0.0848,-2.48868 0.07977,-4.98788 -0.194337,-7.46506 -0.169967,-1.53603 -0.419807,-3.07567 -0.93078,-4.53831 -0.195245,-0.55888 -0.390729,-1.1303 -0.72407,-1.6204 -0.04137,-0.0608 -0.124032,-0.0401 -0.177838,-0.008 -0.180287,0.10693 -0.305886,0.29505 -0.502313,0.37357 -0.391398,0.15645 -0.80838,0.23092 -1.212268,0.34637 z"
       id="path4936"
       inkscape:path-effect="#path-effect4938"
       inkscape:original-d="m 95.988852,166.73062 c -0.577271,0.2309 -1.453764,0.13662 -1.731814,0.69272 -0.282967,0.56594 -1.290656,5.79246 -1.731812,7.4468 -0.26357,0.98839 -0.639204,1.94659 -0.865907,2.94408 -0.983203,4.32609 -0.767755,4.51169 -1.385451,8.65907 -0.532792,3.57732 -0.842664,4.18256 -1.039088,7.61997 -0.0494,0.8645 0,1.73182 0,2.59772 0,0.46182 -0.316513,1.04916 0,1.38545 1.48902,1.58209 5.61485,2.91745 7.273616,0.34637 1.776134,-2.75302 1.988365,-6.27791 2.424538,-9.52498 0.605618,-4.50848 1.981806,-17.57337 -1.039087,-22.85993 -0.128085,-0.22415 -0.453028,0.25048 -0.692727,0.34636 -0.3902,0.15608 -0.808178,0.23091 -1.212268,0.34637 z" />
    <path
       style="fill:#000080;stroke:#000000;stroke-width:0.264583px;stroke-linecap:butt;stroke-linejoin:miter;stroke-opacity:1"
       d="m 95.428529,136.4858 c -1.904995,0.69272 -7.74201,2.07324 -5.714982,2.07817 0.05761,1.4e-4 0.116801,-0.0188 0.173181,0 0.602972,0.20093 1.228003,0.34566 1.863516,0.38673 0.533215,0.0345 1.072812,-0.009 1.590275,-0.14489 0.382274,-0.10025 0.7531,-0.2468 1.096901,-0.44158 0.189661,-0.10745 0.36362,-0.24665 0.496162,-0.421 0.119732,-0.1575 0.200239,-0.34104 0.258562,-0.52913 0.0732,-0.23607 0.120475,-0.479 0.180439,-0.71854 0.01757,-0.0702 0.03606,-0.14018 0.05595,-0.20976 z"
       id="path4973"
       inkscape:path-effect="#path-effect4975"
       inkscape:original-d="m 95.428529,136.4858 c -1.904992,0.69272 -3.809987,1.38545 -5.714982,2.07817 0.05773,0 0.118417,-0.0182 0.173181,0 1.484243,0.49475 3.022438,0.62389 4.502716,-0.17318 0.835623,-0.44995 0.80155,-1.07361 1.039085,-1.90499 z" />
    <path
       style="fill:#ffffff;stroke:#000000;stroke-width:0;stroke-linecap:butt;stroke-linejoin:miter;stroke-opacity:1;stroke-miterlimit:4;stroke-dasharray:none"
       d="m 93.995885,125.21446 c -0.0164,0.15185 -5.94e-4,0.30464 0.01497,0.45586 0.01628,0.15817 0.03655,0.31744 0.02358,0.47658 -0.0058,0.0715 -0.0202,0.14233 -0.04267,0.21066 -0.01,0.0304 -0.03606,0.0583 -0.07085,0.0569 -0.04294,-0.002 -0.08832,-0.0218 -0.129707,9.3e-4 -0.05077,0.0279 -0.08627,0.0754 -0.120701,0.1206 -0.03614,0.0474 -0.07427,0.0937 -0.121265,0.13193 -0.02412,0.0196 -0.05644,0.0199 -0.08538,0.0124 -0.0291,-0.008 -0.05974,-0.006 -0.08749,0.008 -0.06785,0.0356 -0.118038,0.0976 -0.189319,0.12811 -0.12918,0.0553 -0.268725,0.0777 -0.40459,0.11019 -0.08606,0.0206 -0.177263,0.0361 -0.251192,0.0852 -0.03553,0.0236 -0.06846,0.051 -0.102102,0.0771 -0.114321,0.089 -0.226838,0.18095 -0.34807,0.26046 -0.03681,0.0241 -0.07261,0.0519 -0.114576,0.0658 -0.01034,0.003 -0.03183,0.0118 -0.03441,-0.004 -0.02789,-0.17127 -0.03526,-0.34536 -0.03146,-0.51862 0.006,-0.27451 0.03811,-0.54896 0.102764,-0.81592 0.05338,-0.22043 0.127625,-0.4376 0.239942,-0.63532 0.08596,-0.15133 0.196169,-0.29157 0.336754,-0.39588 0.115194,-0.0855 0.252114,-0.13972 0.394074,-0.16118 0.109126,-0.0165 0.220488,7.1e-4 0.325258,0.0325 0.167926,0.0509 0.323234,0.13408 0.481545,0.20821 0.07024,0.0329 0.141313,0.0647 0.214894,0.0893 z"
       id="path6010"
       inkscape:path-effect="#path-effect6012"
       inkscape:original-d="m 93.995885,125.21446 c -0.04031,0.36356 0.113122,0.79237 0,1.13175 -0.04269,0.12806 -0.125426,0.0294 -0.199718,0.0666 -0.106519,0.0533 -0.159777,0.21303 -0.266294,0.26629 -0.0397,0.0198 -0.09194,-0.0165 -0.133147,0 -0.07429,0.0297 -0.126604,0.10065 -0.199719,0.13315 -0.211714,0.0941 -0.45851,0.0961 -0.665732,0.19972 -0.03701,0.0185 -0.586048,0.4781 -0.599159,0.39944 -0.121661,-0.72997 0.07342,-2.41959 1.065171,-2.52979 0.334189,-0.0371 0.693262,0.23109 0.998598,0.33287 z" />
  </g>
</svg>
